<?xml version="1.0" encoding="UTF-8"?>
<svg xmlns="http://www.w3.org/2000/svg" xmlns:xlink="http://www.w3.org/1999/xlink" width="417pt" height="259pt" viewBox="0 0 417 259">
<defs>
<g>
<g id="glyph-0-0">
<path d="M 0.285156 -1.933594 L 0.285156 -2.730469 L 2.714844 -2.730469 L 2.714844 -1.933594 Z M 0.285156 -1.933594 "/>
</g>
<g id="glyph-0-1">
<path d="M 3.351562 0 L 2.5625 0 L 2.5625 -5.039062 C 2.371094 -4.859375 2.121094 -4.675781 1.8125 -4.496094 C 1.503906 -4.3125 1.226562 -4.175781 0.980469 -4.085938 L 0.980469 -4.851562 C 1.421875 -5.058594 1.808594 -5.3125 2.140625 -5.609375 C 2.472656 -5.902344 2.707031 -6.191406 2.84375 -6.46875 L 3.351562 -6.46875 Z M 3.351562 0 "/>
</g>
<g id="glyph-0-2">
<path d="M 0.375 -3.175781 C 0.375 -3.9375 0.453125 -4.550781 0.609375 -5.015625 C 0.765625 -5.480469 1 -5.839844 1.308594 -6.089844 C 1.617188 -6.34375 2.003906 -6.46875 2.472656 -6.46875 C 2.820312 -6.46875 3.121094 -6.398438 3.382812 -6.261719 C 3.644531 -6.121094 3.859375 -5.921875 4.03125 -5.65625 C 4.199219 -5.394531 4.332031 -5.078125 4.429688 -4.699219 C 4.527344 -4.324219 4.574219 -3.816406 4.574219 -3.175781 C 4.574219 -2.421875 4.496094 -1.8125 4.34375 -1.347656 C 4.1875 -0.882812 3.953125 -0.523438 3.644531 -0.269531 C 3.335938 -0.015625 2.945312 0.109375 2.472656 0.109375 C 1.851562 0.109375 1.363281 -0.113281 1.011719 -0.558594 C 0.585938 -1.09375 0.375 -1.96875 0.375 -3.175781 M 1.1875 -3.175781 C 1.1875 -2.121094 1.308594 -1.414062 1.558594 -1.066406 C 1.804688 -0.714844 2.109375 -0.539062 2.472656 -0.539062 C 2.835938 -0.539062 3.144531 -0.714844 3.390625 -1.066406 C 3.636719 -1.417969 3.761719 -2.121094 3.761719 -3.175781 C 3.761719 -4.238281 3.636719 -4.941406 3.390625 -5.289062 C 3.144531 -5.640625 2.835938 -5.8125 2.464844 -5.8125 C 2.101562 -5.8125 1.8125 -5.660156 1.59375 -5.351562 C 1.324219 -4.960938 1.1875 -4.234375 1.1875 -3.175781 Z M 1.1875 -3.175781 "/>
</g>
<g id="glyph-0-3">
<path d="M 4.53125 -0.761719 L 4.53125 0 L 0.273438 0 C 0.265625 -0.191406 0.296875 -0.375 0.363281 -0.550781 C 0.472656 -0.839844 0.648438 -1.125 0.886719 -1.40625 C 1.125 -1.6875 1.46875 -2.011719 1.921875 -2.382812 C 2.621094 -2.957031 3.09375 -3.410156 3.339844 -3.746094 C 3.585938 -4.082031 3.710938 -4.398438 3.710938 -4.699219 C 3.710938 -5.011719 3.597656 -5.277344 3.371094 -5.492188 C 3.148438 -5.707031 2.855469 -5.8125 2.496094 -5.8125 C 2.113281 -5.8125 1.808594 -5.699219 1.582031 -5.472656 C 1.351562 -5.242188 1.238281 -4.925781 1.234375 -4.523438 L 0.421875 -4.605469 C 0.476562 -5.210938 0.6875 -5.675781 1.050781 -5.992188 C 1.414062 -6.308594 1.902344 -6.46875 2.515625 -6.46875 C 3.132812 -6.46875 3.621094 -6.296875 3.980469 -5.953125 C 4.339844 -5.613281 4.523438 -5.1875 4.523438 -4.679688 C 4.523438 -4.421875 4.46875 -4.167969 4.363281 -3.921875 C 4.257812 -3.671875 4.082031 -3.410156 3.839844 -3.132812 C 3.59375 -2.859375 3.1875 -2.480469 2.617188 -2 C 2.144531 -1.601562 1.839844 -1.332031 1.703125 -1.1875 C 1.570312 -1.046875 1.460938 -0.902344 1.371094 -0.761719 Z M 4.53125 -0.761719 "/>
</g>
<g id="glyph-0-4">
<path d="M 0.378906 -1.699219 L 1.167969 -1.804688 C 1.257812 -1.359375 1.414062 -1.035156 1.632812 -0.835938 C 1.851562 -0.640625 2.117188 -0.539062 2.429688 -0.539062 C 2.800781 -0.539062 3.117188 -0.667969 3.371094 -0.925781 C 3.628906 -1.183594 3.757812 -1.503906 3.757812 -1.886719 C 3.757812 -2.25 3.636719 -2.546875 3.402344 -2.785156 C 3.164062 -3.019531 2.863281 -3.136719 2.496094 -3.136719 C 2.347656 -3.136719 2.160156 -3.109375 1.9375 -3.050781 L 2.027344 -3.742188 C 2.078125 -3.738281 2.121094 -3.734375 2.152344 -3.734375 C 2.488281 -3.734375 2.792969 -3.824219 3.0625 -4 C 3.332031 -4.175781 3.46875 -4.445312 3.46875 -4.8125 C 3.46875 -5.101562 3.367188 -5.34375 3.171875 -5.53125 C 2.976562 -5.722656 2.722656 -5.820312 2.414062 -5.820312 C 2.105469 -5.820312 1.847656 -5.722656 1.644531 -5.527344 C 1.4375 -5.335938 1.304688 -5.046875 1.25 -4.65625 L 0.457031 -4.796875 C 0.554688 -5.328125 0.773438 -5.738281 1.117188 -6.03125 C 1.460938 -6.324219 1.886719 -6.46875 2.394531 -6.46875 C 2.746094 -6.46875 3.070312 -6.394531 3.367188 -6.242188 C 3.660156 -6.089844 3.886719 -5.886719 4.046875 -5.625 C 4.203125 -5.363281 4.28125 -5.085938 4.28125 -4.792969 C 4.28125 -4.515625 4.207031 -4.261719 4.054688 -4.035156 C 3.90625 -3.804688 3.683594 -3.625 3.390625 -3.488281 C 3.773438 -3.402344 4.070312 -3.21875 4.28125 -2.941406 C 4.492188 -2.664062 4.597656 -2.320312 4.597656 -1.902344 C 4.597656 -1.339844 4.390625 -0.863281 3.980469 -0.472656 C 3.570312 -0.0820312 3.050781 0.113281 2.425781 0.113281 C 1.859375 0.113281 1.390625 -0.0546875 1.015625 -0.390625 C 0.644531 -0.726562 0.429688 -1.164062 0.378906 -1.699219 Z M 0.378906 -1.699219 "/>
</g>
<g id="glyph-1-0">
<path d="M 7.761719 -3.3125 L 9.011719 -2.996094 C 8.75 -1.96875 8.277344 -1.1875 7.597656 -0.648438 C 6.914062 -0.109375 6.082031 0.160156 5.097656 0.160156 C 4.078125 0.160156 3.25 -0.046875 2.613281 -0.460938 C 1.976562 -0.875 1.488281 -1.476562 1.15625 -2.261719 C 0.824219 -3.046875 0.65625 -3.894531 0.65625 -4.796875 C 0.65625 -5.777344 0.84375 -6.636719 1.222656 -7.371094 C 1.597656 -8.101562 2.132812 -8.660156 2.828125 -9.039062 C 3.519531 -9.417969 4.285156 -9.609375 5.117188 -9.609375 C 6.0625 -9.609375 6.859375 -9.371094 7.503906 -8.886719 C 8.148438 -8.40625 8.597656 -7.730469 8.847656 -6.859375 L 7.617188 -6.566406 C 7.398438 -7.253906 7.082031 -7.753906 6.664062 -8.070312 C 6.246094 -8.382812 5.722656 -8.539062 5.09375 -8.539062 C 4.367188 -8.539062 3.757812 -8.367188 3.269531 -8.019531 C 2.785156 -7.671875 2.441406 -7.203125 2.242188 -6.617188 C 2.046875 -6.03125 1.945312 -5.425781 1.945312 -4.800781 C 1.945312 -4 2.0625 -3.296875 2.296875 -2.699219 C 2.53125 -2.097656 2.894531 -1.648438 3.390625 -1.351562 C 3.882812 -1.058594 4.417969 -0.910156 4.996094 -0.910156 C 5.695312 -0.910156 6.289062 -1.109375 6.773438 -1.515625 C 7.257812 -1.917969 7.589844 -2.519531 7.761719 -3.3125 Z M 7.761719 -3.3125 "/>
</g>
<g id="glyph-1-1">
<path d="M 0.84375 0 L 0.84375 -9.449219 L 2.003906 -9.449219 L 2.003906 0 Z M 0.84375 0 "/>
</g>
<g id="glyph-1-2">
<path d="M 5.355469 0 L 5.355469 -1.003906 C 4.824219 -0.230469 4.097656 0.15625 3.183594 0.15625 C 2.78125 0.15625 2.402344 0.078125 2.054688 -0.078125 C 1.703125 -0.230469 1.441406 -0.425781 1.273438 -0.660156 C 1.101562 -0.894531 0.984375 -1.183594 0.914062 -1.519531 C 0.867188 -1.75 0.84375 -2.109375 0.84375 -2.605469 L 0.84375 -6.84375 L 2.003906 -6.84375 L 2.003906 -3.046875 C 2.003906 -2.441406 2.027344 -2.035156 2.074219 -1.824219 C 2.148438 -1.519531 2.304688 -1.28125 2.539062 -1.105469 C 2.777344 -0.929688 3.066406 -0.84375 3.414062 -0.84375 C 3.765625 -0.84375 4.089844 -0.933594 4.394531 -1.113281 C 4.699219 -1.289062 4.917969 -1.53125 5.042969 -1.839844 C 5.171875 -2.148438 5.234375 -2.59375 5.234375 -3.175781 L 5.234375 -6.84375 L 6.394531 -6.84375 L 6.394531 0 Z M 5.355469 0 "/>
</g>
<g id="glyph-1-3">
<path d="M 0.40625 -2.042969 L 1.554688 -2.222656 C 1.617188 -1.765625 1.796875 -1.410156 2.089844 -1.167969 C 2.386719 -0.921875 2.796875 -0.800781 3.324219 -0.800781 C 3.859375 -0.800781 4.253906 -0.90625 4.511719 -1.125 C 4.769531 -1.339844 4.898438 -1.597656 4.898438 -1.886719 C 4.898438 -2.152344 4.785156 -2.355469 4.558594 -2.507812 C 4.398438 -2.609375 4.003906 -2.742188 3.371094 -2.898438 C 2.519531 -3.113281 1.929688 -3.300781 1.601562 -3.457031 C 1.273438 -3.613281 1.023438 -3.832031 0.855469 -4.109375 C 0.683594 -4.386719 0.597656 -4.691406 0.597656 -5.027344 C 0.597656 -5.332031 0.667969 -5.613281 0.808594 -5.875 C 0.949219 -6.136719 1.136719 -6.351562 1.378906 -6.523438 C 1.558594 -6.65625 1.804688 -6.769531 2.117188 -6.859375 C 2.429688 -6.953125 2.761719 -7 3.121094 -7 C 3.65625 -7 4.128906 -6.921875 4.535156 -6.765625 C 4.941406 -6.613281 5.238281 -6.402344 5.433594 -6.140625 C 5.625 -5.875 5.761719 -5.519531 5.832031 -5.078125 L 4.699219 -4.925781 C 4.648438 -5.277344 4.496094 -5.550781 4.25 -5.75 C 4.003906 -5.945312 3.65625 -6.046875 3.203125 -6.046875 C 2.671875 -6.046875 2.289062 -5.957031 2.0625 -5.78125 C 1.835938 -5.605469 1.722656 -5.398438 1.722656 -5.164062 C 1.722656 -5.011719 1.769531 -4.875 1.863281 -4.757812 C 1.957031 -4.632812 2.105469 -4.527344 2.308594 -4.445312 C 2.421875 -4.402344 2.765625 -4.304688 3.332031 -4.152344 C 4.152344 -3.929688 4.726562 -3.753906 5.050781 -3.613281 C 5.375 -3.472656 5.628906 -3.269531 5.8125 -3.003906 C 6 -2.738281 6.089844 -2.40625 6.089844 -2.011719 C 6.089844 -1.625 5.976562 -1.261719 5.753906 -0.917969 C 5.527344 -0.578125 5.203125 -0.3125 4.777344 -0.125 C 4.351562 0.0625 3.871094 0.15625 3.332031 0.15625 C 2.441406 0.15625 1.765625 -0.03125 1.296875 -0.398438 C 0.832031 -0.769531 0.535156 -1.316406 0.40625 -2.042969 Z M 0.40625 -2.042969 "/>
</g>
<g id="glyph-1-4">
<path d="M 3.402344 -1.039062 L 3.570312 -0.0117188 C 3.242188 0.0546875 2.953125 0.0898438 2.695312 0.0898438 C 2.273438 0.0898438 1.945312 0.0234375 1.714844 -0.109375 C 1.484375 -0.242188 1.320312 -0.417969 1.226562 -0.636719 C 1.128906 -0.851562 1.082031 -1.308594 1.082031 -2.003906 L 1.082031 -5.941406 L 0.230469 -5.941406 L 0.230469 -6.84375 L 1.082031 -6.84375 L 1.082031 -8.539062 L 2.238281 -9.234375 L 2.238281 -6.84375 L 3.402344 -6.84375 L 3.402344 -5.941406 L 2.238281 -5.941406 L 2.238281 -1.941406 C 2.238281 -1.609375 2.257812 -1.394531 2.296875 -1.300781 C 2.339844 -1.207031 2.40625 -1.132812 2.496094 -1.078125 C 2.589844 -1.019531 2.722656 -0.992188 2.894531 -0.992188 C 3.023438 -0.992188 3.191406 -1.007812 3.402344 -1.039062 Z M 3.402344 -1.039062 "/>
</g>
<g id="glyph-1-5">
<path d="M 5.554688 -2.203125 L 6.753906 -2.054688 C 6.566406 -1.355469 6.214844 -0.8125 5.703125 -0.425781 C 5.191406 -0.0390625 4.539062 0.15625 3.746094 0.15625 C 2.742188 0.15625 1.949219 -0.152344 1.363281 -0.769531 C 0.777344 -1.386719 0.484375 -2.25 0.484375 -3.363281 C 0.484375 -4.515625 0.78125 -5.410156 1.371094 -6.046875 C 1.964844 -6.679688 2.734375 -7 3.679688 -7 C 4.59375 -7 5.34375 -6.6875 5.921875 -6.066406 C 6.503906 -5.441406 6.792969 -4.566406 6.792969 -3.433594 C 6.792969 -3.367188 6.792969 -3.261719 6.785156 -3.125 L 1.683594 -3.125 C 1.726562 -2.375 1.9375 -1.796875 2.320312 -1.398438 C 2.703125 -1 3.179688 -0.800781 3.75 -0.800781 C 4.175781 -0.800781 4.539062 -0.910156 4.839844 -1.132812 C 5.140625 -1.359375 5.378906 -1.714844 5.554688 -2.203125 M 1.746094 -4.078125 L 5.570312 -4.078125 C 5.515625 -4.65625 5.371094 -5.085938 5.128906 -5.375 C 4.761719 -5.820312 4.28125 -6.046875 3.691406 -6.046875 C 3.160156 -6.046875 2.710938 -5.867188 2.347656 -5.511719 C 1.984375 -5.152344 1.785156 -4.675781 1.746094 -4.078125 Z M 1.746094 -4.078125 "/>
</g>
<g id="glyph-1-6">
<path d="M 0.855469 0 L 0.855469 -6.84375 L 1.902344 -6.84375 L 1.902344 -5.808594 C 2.167969 -6.292969 2.414062 -6.613281 2.640625 -6.765625 C 2.863281 -6.921875 3.113281 -7 3.382812 -7 C 3.773438 -7 4.171875 -6.875 4.578125 -6.625 L 4.175781 -5.550781 C 3.894531 -5.71875 3.609375 -5.800781 3.324219 -5.800781 C 3.070312 -5.800781 2.84375 -5.722656 2.640625 -5.570312 C 2.441406 -5.417969 2.296875 -5.207031 2.210938 -4.9375 C 2.082031 -4.523438 2.015625 -4.074219 2.015625 -3.582031 L 2.015625 0 Z M 0.855469 0 "/>
</g>
<g id="glyph-1-7">
<path d="M 5.3125 0 L 5.3125 -0.863281 C 4.875 -0.183594 4.238281 0.15625 3.398438 0.15625 C 2.851562 0.15625 2.347656 0.00390625 1.890625 -0.296875 C 1.433594 -0.597656 1.078125 -1.015625 0.828125 -1.554688 C 0.578125 -2.097656 0.453125 -2.714844 0.453125 -3.414062 C 0.453125 -4.097656 0.566406 -4.71875 0.792969 -5.277344 C 1.019531 -5.832031 1.363281 -6.257812 1.816406 -6.554688 C 2.273438 -6.851562 2.78125 -7 3.34375 -7 C 3.757812 -7 4.125 -6.914062 4.445312 -6.738281 C 4.769531 -6.566406 5.03125 -6.335938 5.234375 -6.058594 L 5.234375 -9.449219 L 6.386719 -9.449219 L 6.386719 0 L 5.3125 0 M 1.644531 -3.414062 C 1.644531 -2.539062 1.828125 -1.882812 2.199219 -1.449219 C 2.566406 -1.015625 3.003906 -0.800781 3.507812 -0.800781 C 4.011719 -0.800781 4.445312 -1.007812 4.796875 -1.421875 C 5.152344 -1.835938 5.332031 -2.46875 5.332031 -3.320312 C 5.332031 -4.257812 5.148438 -4.945312 4.789062 -5.382812 C 4.429688 -5.820312 3.984375 -6.039062 3.453125 -6.039062 C 2.9375 -6.039062 2.507812 -5.828125 2.164062 -5.40625 C 1.816406 -4.988281 1.644531 -4.324219 1.644531 -3.414062 Z M 1.644531 -3.414062 "/>
</g>
<g id="glyph-1-8">
</g>
<g id="glyph-1-9">
<path d="M 5.335938 -2.507812 L 6.476562 -2.359375 C 6.351562 -1.574219 6.035156 -0.957031 5.519531 -0.511719 C 5.007812 -0.0664062 4.375 0.15625 3.628906 0.15625 C 2.691406 0.15625 1.9375 -0.152344 1.371094 -0.765625 C 0.800781 -1.375 0.515625 -2.253906 0.515625 -3.398438 C 0.515625 -4.136719 0.636719 -4.78125 0.882812 -5.335938 C 1.128906 -5.890625 1.5 -6.308594 2 -6.582031 C 2.5 -6.859375 3.046875 -7 3.636719 -7 C 4.378906 -7 4.988281 -6.8125 5.460938 -6.4375 C 5.933594 -6.058594 6.234375 -5.527344 6.367188 -4.835938 L 5.238281 -4.660156 C 5.132812 -5.121094 4.941406 -5.464844 4.667969 -5.699219 C 4.398438 -5.929688 4.066406 -6.046875 3.679688 -6.046875 C 3.097656 -6.046875 2.621094 -5.835938 2.257812 -5.417969 C 1.890625 -5 1.707031 -4.335938 1.707031 -3.429688 C 1.707031 -2.507812 1.882812 -1.839844 2.238281 -1.425781 C 2.589844 -1.007812 3.046875 -0.800781 3.617188 -0.800781 C 4.070312 -0.800781 4.453125 -0.9375 4.757812 -1.21875 C 5.0625 -1.496094 5.253906 -1.925781 5.335938 -2.507812 Z M 5.335938 -2.507812 "/>
</g>
<g id="glyph-1-10">
<path d="M 5.335938 -0.84375 C 4.90625 -0.480469 4.492188 -0.222656 4.097656 -0.0703125 C 3.699219 0.078125 3.273438 0.15625 2.816406 0.15625 C 2.066406 0.15625 1.488281 -0.0273438 1.082031 -0.394531 C 0.679688 -0.765625 0.476562 -1.234375 0.476562 -1.804688 C 0.476562 -2.140625 0.554688 -2.445312 0.707031 -2.722656 C 0.859375 -3 1.058594 -3.222656 1.304688 -3.390625 C 1.550781 -3.558594 1.832031 -3.683594 2.140625 -3.769531 C 2.367188 -3.832031 2.710938 -3.886719 3.171875 -3.945312 C 4.109375 -4.054688 4.796875 -4.1875 5.238281 -4.34375 C 5.246094 -4.503906 5.246094 -4.605469 5.246094 -4.648438 C 5.246094 -5.121094 5.136719 -5.453125 4.917969 -5.644531 C 4.621094 -5.90625 4.179688 -6.039062 3.597656 -6.039062 C 3.050781 -6.039062 2.648438 -5.945312 2.386719 -5.753906 C 2.128906 -5.5625 1.9375 -5.222656 1.8125 -4.738281 L 0.675781 -4.890625 C 0.78125 -5.378906 0.949219 -5.769531 1.1875 -6.066406 C 1.421875 -6.367188 1.765625 -6.597656 2.210938 -6.757812 C 2.65625 -6.917969 3.175781 -7 3.765625 -7 C 4.347656 -7 4.824219 -6.929688 5.1875 -6.792969 C 5.554688 -6.65625 5.820312 -6.484375 5.992188 -6.273438 C 6.164062 -6.066406 6.285156 -5.804688 6.355469 -5.484375 C 6.394531 -5.289062 6.414062 -4.929688 6.414062 -4.414062 L 6.414062 -2.867188 C 6.414062 -1.789062 6.4375 -1.109375 6.488281 -0.820312 C 6.535156 -0.535156 6.632812 -0.261719 6.78125 0 L 5.570312 0 C 5.449219 -0.242188 5.371094 -0.523438 5.335938 -0.84375 M 5.238281 -3.433594 C 4.820312 -3.261719 4.1875 -3.117188 3.34375 -2.996094 C 2.867188 -2.929688 2.53125 -2.851562 2.332031 -2.765625 C 2.136719 -2.679688 1.984375 -2.554688 1.875 -2.386719 C 1.769531 -2.222656 1.714844 -2.039062 1.714844 -1.835938 C 1.714844 -1.527344 1.832031 -1.269531 2.066406 -1.0625 C 2.300781 -0.855469 2.640625 -0.753906 3.09375 -0.753906 C 3.539062 -0.753906 3.9375 -0.851562 4.285156 -1.046875 C 4.632812 -1.242188 4.890625 -1.511719 5.054688 -1.851562 C 5.175781 -2.113281 5.238281 -2.5 5.238281 -3.011719 Z M 5.238281 -3.433594 "/>
</g>
</g>
<clipPath id="clip-0">
<path clip-rule="nonzero" d="M 24.890625 29.667969 L 405.046875 29.667969 L 405.046875 233.769531 L 24.890625 233.769531 Z M 24.890625 29.667969 "/>
</clipPath>
<clipPath id="clip-1">
<path clip-rule="nonzero" d="M 24.890625 218 L 405.046875 218 L 405.046875 220 L 24.890625 220 Z M 24.890625 218 "/>
</clipPath>
<clipPath id="clip-2">
<path clip-rule="nonzero" d="M 24.890625 150 L 405.046875 150 L 405.046875 152 L 24.890625 152 Z M 24.890625 150 "/>
</clipPath>
<clipPath id="clip-3">
<path clip-rule="nonzero" d="M 24.890625 82 L 405.046875 82 L 405.046875 84 L 24.890625 84 Z M 24.890625 82 "/>
</clipPath>
<clipPath id="clip-4">
<path clip-rule="nonzero" d="M 53 29.667969 L 54 29.667969 L 54 233.769531 L 53 233.769531 Z M 53 29.667969 "/>
</clipPath>
<clipPath id="clip-5">
<path clip-rule="nonzero" d="M 123 29.667969 L 124 29.667969 L 124 233.769531 L 123 233.769531 Z M 123 29.667969 "/>
</clipPath>
<clipPath id="clip-6">
<path clip-rule="nonzero" d="M 193 29.667969 L 194 29.667969 L 194 233.769531 L 193 233.769531 Z M 193 29.667969 "/>
</clipPath>
<clipPath id="clip-7">
<path clip-rule="nonzero" d="M 263 29.667969 L 264 29.667969 L 264 233.769531 L 263 233.769531 Z M 263 29.667969 "/>
</clipPath>
<clipPath id="clip-8">
<path clip-rule="nonzero" d="M 333 29.667969 L 334 29.667969 L 334 233.769531 L 333 233.769531 Z M 333 29.667969 "/>
</clipPath>
<clipPath id="clip-9">
<path clip-rule="nonzero" d="M 403 29.667969 L 404 29.667969 L 404 233.769531 L 403 233.769531 Z M 403 29.667969 "/>
</clipPath>
</defs>
<rect x="-41.7" y="-25.9" width="500.4" height="310.8" fill="rgb(100%, 98.039216%, 94.117647%)" fill-opacity="1"/>
<g clip-path="url(#clip-0)">
<path fill-rule="nonzero" fill="rgb(100%, 98.039216%, 94.117647%)" fill-opacity="1" d="M 24.890625 233.769531 L 405.046875 233.769531 L 405.046875 29.667969 L 24.890625 29.667969 Z M 24.890625 233.769531 "/>
</g>
<g clip-path="url(#clip-1)">
<path fill="none" stroke-width="0.746885" stroke-linecap="butt" stroke-linejoin="round" stroke="rgb(90.196078%, 86.27451%, 78.431373%)" stroke-opacity="1" stroke-miterlimit="10" d="M 24.890625 219.117188 L 405.042969 219.117188 "/>
</g>
<g clip-path="url(#clip-2)">
<path fill="none" stroke-width="0.746885" stroke-linecap="butt" stroke-linejoin="round" stroke="rgb(90.196078%, 86.27451%, 78.431373%)" stroke-opacity="1" stroke-miterlimit="10" d="M 24.890625 151.0625 L 405.042969 151.0625 "/>
</g>
<g clip-path="url(#clip-3)">
<path fill="none" stroke-width="0.746885" stroke-linecap="butt" stroke-linejoin="round" stroke="rgb(90.196078%, 86.27451%, 78.431373%)" stroke-opacity="1" stroke-miterlimit="10" d="M 24.890625 83.011719 L 405.042969 83.011719 "/>
</g>
<g clip-path="url(#clip-4)">
<path fill="none" stroke-width="0.746885" stroke-linecap="butt" stroke-linejoin="round" stroke="rgb(90.196078%, 86.27451%, 78.431373%)" stroke-opacity="1" stroke-miterlimit="10" d="M 53.574219 233.769531 L 53.574219 29.667969 "/>
</g>
<g clip-path="url(#clip-5)">
<path fill="none" stroke-width="0.746885" stroke-linecap="butt" stroke-linejoin="round" stroke="rgb(90.196078%, 86.27451%, 78.431373%)" stroke-opacity="1" stroke-miterlimit="10" d="M 123.570312 233.769531 L 123.570312 29.667969 "/>
</g>
<g clip-path="url(#clip-6)">
<path fill="none" stroke-width="0.746885" stroke-linecap="butt" stroke-linejoin="round" stroke="rgb(90.196078%, 86.27451%, 78.431373%)" stroke-opacity="1" stroke-miterlimit="10" d="M 193.566406 233.769531 L 193.566406 29.667969 "/>
</g>
<g clip-path="url(#clip-7)">
<path fill="none" stroke-width="0.746885" stroke-linecap="butt" stroke-linejoin="round" stroke="rgb(90.196078%, 86.27451%, 78.431373%)" stroke-opacity="1" stroke-miterlimit="10" d="M 263.566406 233.769531 L 263.566406 29.667969 "/>
</g>
<g clip-path="url(#clip-8)">
<path fill="none" stroke-width="0.746885" stroke-linecap="butt" stroke-linejoin="round" stroke="rgb(90.196078%, 86.27451%, 78.431373%)" stroke-opacity="1" stroke-miterlimit="10" d="M 333.5625 233.769531 L 333.5625 29.667969 "/>
</g>
<g clip-path="url(#clip-9)">
<path fill="none" stroke-width="0.746885" stroke-linecap="butt" stroke-linejoin="round" stroke="rgb(90.196078%, 86.27451%, 78.431373%)" stroke-opacity="1" stroke-miterlimit="10" d="M 403.558594 233.769531 L 403.558594 29.667969 "/>
</g>
<path fill-rule="nonzero" fill="rgb(24.705882%, 29.019608%, 27.45098%)" fill-opacity="0.858824" stroke-width="0.708661" stroke-linecap="round" stroke-linejoin="round" stroke="rgb(24.705882%, 29.019608%, 27.45098%)" stroke-opacity="0.858824" stroke-miterlimit="10" d="M 81.753906 151.9375 C 81.753906 155.824219 75.921875 155.824219 75.921875 151.9375 C 75.921875 148.050781 81.753906 148.050781 81.753906 151.9375 "/>
<path fill-rule="nonzero" fill="rgb(24.705882%, 29.019608%, 27.45098%)" fill-opacity="0.858824" stroke-width="0.708661" stroke-linecap="round" stroke-linejoin="round" stroke="rgb(24.705882%, 29.019608%, 27.45098%)" stroke-opacity="0.858824" stroke-miterlimit="10" d="M 45.085938 126.03125 C 45.085938 129.917969 39.253906 129.917969 39.253906 126.03125 C 39.253906 122.144531 45.085938 122.144531 45.085938 126.03125 "/>
<path fill-rule="nonzero" fill="rgb(24.705882%, 29.019608%, 27.45098%)" fill-opacity="0.858824" stroke-width="0.708661" stroke-linecap="round" stroke-linejoin="round" stroke="rgb(24.705882%, 29.019608%, 27.45098%)" stroke-opacity="0.858824" stroke-miterlimit="10" d="M 80.871094 156.378906 C 80.871094 160.265625 75.042969 160.265625 75.042969 156.378906 C 75.042969 152.492188 80.871094 152.492188 80.871094 156.378906 "/>
<path fill-rule="nonzero" fill="rgb(24.705882%, 29.019608%, 27.45098%)" fill-opacity="0.858824" stroke-width="0.708661" stroke-linecap="round" stroke-linejoin="round" stroke="rgb(24.705882%, 29.019608%, 27.45098%)" stroke-opacity="0.858824" stroke-miterlimit="10" d="M 55.929688 155.214844 C 55.929688 159.101562 50.097656 159.101562 50.097656 155.214844 C 50.097656 151.328125 55.929688 151.328125 55.929688 155.214844 "/>
<path fill-rule="nonzero" fill="rgb(24.705882%, 29.019608%, 27.45098%)" fill-opacity="0.858824" stroke-width="0.708661" stroke-linecap="round" stroke-linejoin="round" stroke="rgb(24.705882%, 29.019608%, 27.45098%)" stroke-opacity="0.858824" stroke-miterlimit="10" d="M 54.375 173.433594 C 54.375 177.320312 48.542969 177.320312 48.542969 173.433594 C 48.542969 169.546875 54.375 169.546875 54.375 173.433594 "/>
<path fill-rule="nonzero" fill="rgb(24.705882%, 29.019608%, 27.45098%)" fill-opacity="0.858824" stroke-width="0.708661" stroke-linecap="round" stroke-linejoin="round" stroke="rgb(24.705882%, 29.019608%, 27.45098%)" stroke-opacity="0.858824" stroke-miterlimit="10" d="M 68.921875 138.011719 C 68.921875 141.898438 63.089844 141.898438 63.089844 138.011719 C 63.089844 134.125 68.921875 134.125 68.921875 138.011719 "/>
<path fill-rule="nonzero" fill="rgb(24.705882%, 29.019608%, 27.45098%)" fill-opacity="0.858824" stroke-width="0.708661" stroke-linecap="round" stroke-linejoin="round" stroke="rgb(24.705882%, 29.019608%, 27.45098%)" stroke-opacity="0.858824" stroke-miterlimit="10" d="M 70.386719 113.292969 C 70.386719 117.179688 64.558594 117.179688 64.558594 113.292969 C 64.558594 109.40625 70.386719 109.40625 70.386719 113.292969 "/>
<path fill-rule="nonzero" fill="rgb(24.705882%, 29.019608%, 27.45098%)" fill-opacity="0.858824" stroke-width="0.708661" stroke-linecap="round" stroke-linejoin="round" stroke="rgb(24.705882%, 29.019608%, 27.45098%)" stroke-opacity="0.858824" stroke-miterlimit="10" d="M 55.601562 156.988281 C 55.601562 160.875 49.773438 160.875 49.773438 156.988281 C 49.773438 153.101562 55.601562 153.101562 55.601562 156.988281 "/>
<path fill-rule="nonzero" fill="rgb(24.705882%, 29.019608%, 27.45098%)" fill-opacity="0.858824" stroke-width="0.708661" stroke-linecap="round" stroke-linejoin="round" stroke="rgb(24.705882%, 29.019608%, 27.45098%)" stroke-opacity="0.858824" stroke-miterlimit="10" d="M 67.613281 149.230469 C 67.613281 153.117188 61.78125 153.117188 61.78125 149.230469 C 61.78125 145.34375 67.613281 145.34375 67.613281 149.230469 "/>
<path fill-rule="nonzero" fill="rgb(24.705882%, 29.019608%, 27.45098%)" fill-opacity="0.858824" stroke-width="0.708661" stroke-linecap="round" stroke-linejoin="round" stroke="rgb(24.705882%, 29.019608%, 27.45098%)" stroke-opacity="0.858824" stroke-miterlimit="10" d="M 77.101562 111.242188 C 77.101562 115.128906 71.273438 115.128906 71.273438 111.242188 C 71.273438 107.355469 77.101562 107.355469 77.101562 111.242188 "/>
<path fill-rule="nonzero" fill="rgb(24.705882%, 29.019608%, 27.45098%)" fill-opacity="0.858824" stroke-width="0.708661" stroke-linecap="round" stroke-linejoin="round" stroke="rgb(24.705882%, 29.019608%, 27.45098%)" stroke-opacity="0.858824" stroke-miterlimit="10" d="M 50.332031 134.835938 C 50.332031 138.722656 44.503906 138.722656 44.503906 134.835938 C 44.503906 130.949219 50.332031 130.949219 50.332031 134.835938 "/>
<path fill-rule="nonzero" fill="rgb(24.705882%, 29.019608%, 27.45098%)" fill-opacity="0.858824" stroke-width="0.708661" stroke-linecap="round" stroke-linejoin="round" stroke="rgb(24.705882%, 29.019608%, 27.45098%)" stroke-opacity="0.858824" stroke-miterlimit="10" d="M 85.570312 125 C 85.570312 128.886719 79.738281 128.886719 79.738281 125 C 79.738281 121.113281 85.570312 121.113281 85.570312 125 "/>
<path fill-rule="nonzero" fill="rgb(24.705882%, 29.019608%, 27.45098%)" fill-opacity="0.858824" stroke-width="0.708661" stroke-linecap="round" stroke-linejoin="round" stroke="rgb(24.705882%, 29.019608%, 27.45098%)" stroke-opacity="0.858824" stroke-miterlimit="10" d="M 72.460938 140.285156 C 72.460938 144.171875 66.632812 144.171875 66.632812 140.285156 C 66.632812 136.394531 72.460938 136.394531 72.460938 140.285156 "/>
<path fill-rule="nonzero" fill="rgb(24.705882%, 29.019608%, 27.45098%)" fill-opacity="0.858824" stroke-width="0.708661" stroke-linecap="round" stroke-linejoin="round" stroke="rgb(24.705882%, 29.019608%, 27.45098%)" stroke-opacity="0.858824" stroke-miterlimit="10" d="M 75.605469 138.390625 C 75.605469 142.277344 69.773438 142.277344 69.773438 138.390625 C 69.773438 134.503906 75.605469 134.503906 75.605469 138.390625 "/>
<path fill-rule="nonzero" fill="rgb(41.176471%, 45.490196%, 39.215686%)" fill-opacity="0.858824" stroke-width="0.708661" stroke-linecap="round" stroke-linejoin="round" stroke="rgb(41.176471%, 45.490196%, 39.215686%)" stroke-opacity="0.858824" stroke-miterlimit="10" d="M 108.640625 53.5 C 108.640625 57.386719 102.8125 57.386719 102.8125 53.5 C 102.8125 49.613281 108.640625 49.613281 108.640625 53.5 "/>
<path fill-rule="nonzero" fill="rgb(41.176471%, 45.490196%, 39.215686%)" fill-opacity="0.858824" stroke-width="0.708661" stroke-linecap="round" stroke-linejoin="round" stroke="rgb(41.176471%, 45.490196%, 39.215686%)" stroke-opacity="0.858824" stroke-miterlimit="10" d="M 134.3125 102.582031 C 134.3125 106.46875 128.480469 106.46875 128.480469 102.582031 C 128.480469 98.695312 134.3125 98.695312 134.3125 102.582031 "/>
<path fill-rule="nonzero" fill="rgb(41.176471%, 45.490196%, 39.215686%)" fill-opacity="0.858824" stroke-width="0.708661" stroke-linecap="round" stroke-linejoin="round" stroke="rgb(41.176471%, 45.490196%, 39.215686%)" stroke-opacity="0.858824" stroke-miterlimit="10" d="M 117.484375 93.699219 C 117.484375 97.585938 111.652344 97.585938 111.652344 93.699219 C 111.652344 89.8125 117.484375 89.8125 117.484375 93.699219 "/>
<path fill-rule="nonzero" fill="rgb(41.176471%, 45.490196%, 39.215686%)" fill-opacity="0.858824" stroke-width="0.708661" stroke-linecap="round" stroke-linejoin="round" stroke="rgb(41.176471%, 45.490196%, 39.215686%)" stroke-opacity="0.858824" stroke-miterlimit="10" d="M 142.671875 38.945312 C 142.671875 42.832031 136.839844 42.832031 136.839844 38.945312 C 136.839844 35.058594 142.671875 35.058594 142.671875 38.945312 "/>
<path fill-rule="nonzero" fill="rgb(41.176471%, 45.490196%, 39.215686%)" fill-opacity="0.858824" stroke-width="0.708661" stroke-linecap="round" stroke-linejoin="round" stroke="rgb(41.176471%, 45.490196%, 39.215686%)" stroke-opacity="0.858824" stroke-miterlimit="10" d="M 95.960938 83.144531 C 95.960938 87.03125 90.132812 87.03125 90.132812 83.144531 C 90.132812 79.257812 95.960938 79.257812 95.960938 83.144531 "/>
<path fill-rule="nonzero" fill="rgb(41.176471%, 45.490196%, 39.215686%)" fill-opacity="0.858824" stroke-width="0.708661" stroke-linecap="round" stroke-linejoin="round" stroke="rgb(41.176471%, 45.490196%, 39.215686%)" stroke-opacity="0.858824" stroke-miterlimit="10" d="M 132.046875 69.214844 C 132.046875 73.101562 126.21875 73.101562 126.21875 69.214844 C 126.21875 65.328125 132.046875 65.328125 132.046875 69.214844 "/>
<path fill-rule="nonzero" fill="rgb(41.176471%, 45.490196%, 39.215686%)" fill-opacity="0.858824" stroke-width="0.708661" stroke-linecap="round" stroke-linejoin="round" stroke="rgb(41.176471%, 45.490196%, 39.215686%)" stroke-opacity="0.858824" stroke-miterlimit="10" d="M 106.65625 66.609375 C 106.65625 70.496094 100.828125 70.496094 100.828125 66.609375 C 100.828125 62.722656 106.65625 62.722656 106.65625 66.609375 "/>
<path fill-rule="nonzero" fill="rgb(41.176471%, 45.490196%, 39.215686%)" fill-opacity="0.858824" stroke-width="0.708661" stroke-linecap="round" stroke-linejoin="round" stroke="rgb(41.176471%, 45.490196%, 39.215686%)" stroke-opacity="0.858824" stroke-miterlimit="10" d="M 119.886719 52.132812 C 119.886719 56.019531 114.054688 56.019531 114.054688 52.132812 C 114.054688 48.246094 119.886719 48.246094 119.886719 52.132812 "/>
<path fill-rule="nonzero" fill="rgb(41.176471%, 45.490196%, 39.215686%)" fill-opacity="0.858824" stroke-width="0.708661" stroke-linecap="round" stroke-linejoin="round" stroke="rgb(41.176471%, 45.490196%, 39.215686%)" stroke-opacity="0.858824" stroke-miterlimit="10" d="M 136.117188 65.34375 C 136.117188 69.230469 130.289062 69.230469 130.289062 65.34375 C 130.289062 61.457031 136.117188 61.457031 136.117188 65.34375 "/>
<path fill-rule="nonzero" fill="rgb(41.176471%, 45.490196%, 39.215686%)" fill-opacity="0.858824" stroke-width="0.708661" stroke-linecap="round" stroke-linejoin="round" stroke="rgb(41.176471%, 45.490196%, 39.215686%)" stroke-opacity="0.858824" stroke-miterlimit="10" d="M 104.691406 62.945312 C 104.691406 66.832031 98.859375 66.832031 98.859375 62.945312 C 98.859375 59.058594 104.691406 59.058594 104.691406 62.945312 "/>
<path fill-rule="nonzero" fill="rgb(41.176471%, 45.490196%, 39.215686%)" fill-opacity="0.858824" stroke-width="0.708661" stroke-linecap="round" stroke-linejoin="round" stroke="rgb(41.176471%, 45.490196%, 39.215686%)" stroke-opacity="0.858824" stroke-miterlimit="10" d="M 135.773438 99.851562 C 135.773438 103.738281 129.945312 103.738281 129.945312 99.851562 C 129.945312 95.964844 135.773438 95.964844 135.773438 99.851562 "/>
<path fill-rule="nonzero" fill="rgb(41.176471%, 45.490196%, 39.215686%)" fill-opacity="0.858824" stroke-width="0.708661" stroke-linecap="round" stroke-linejoin="round" stroke="rgb(41.176471%, 45.490196%, 39.215686%)" stroke-opacity="0.858824" stroke-miterlimit="10" d="M 135.746094 61.359375 C 135.746094 65.246094 129.917969 65.246094 129.917969 61.359375 C 129.917969 57.472656 135.746094 57.472656 135.746094 61.359375 "/>
<path fill-rule="nonzero" fill="rgb(41.176471%, 45.490196%, 39.215686%)" fill-opacity="0.858824" stroke-width="0.708661" stroke-linecap="round" stroke-linejoin="round" stroke="rgb(41.176471%, 45.490196%, 39.215686%)" stroke-opacity="0.858824" stroke-miterlimit="10" d="M 97.710938 38.996094 C 97.710938 42.882812 91.878906 42.882812 91.878906 38.996094 C 91.878906 35.109375 97.710938 35.109375 97.710938 38.996094 "/>
<path fill-rule="nonzero" fill="rgb(41.176471%, 45.490196%, 39.215686%)" fill-opacity="0.858824" stroke-width="0.708661" stroke-linecap="round" stroke-linejoin="round" stroke="rgb(41.176471%, 45.490196%, 39.215686%)" stroke-opacity="0.858824" stroke-miterlimit="10" d="M 91.457031 74.460938 C 91.457031 78.347656 85.628906 78.347656 85.628906 74.460938 C 85.628906 70.574219 91.457031 70.574219 91.457031 74.460938 "/>
<path fill-rule="nonzero" fill="rgb(60.784314%, 58.431373%, 42.352941%)" fill-opacity="0.858824" stroke-width="0.708661" stroke-linecap="round" stroke-linejoin="round" stroke="rgb(60.784314%, 58.431373%, 42.352941%)" stroke-opacity="0.858824" stroke-miterlimit="10" d="M 183.710938 208.035156 C 183.710938 211.921875 177.878906 211.921875 177.878906 208.035156 C 177.878906 204.148438 183.710938 204.148438 183.710938 208.035156 "/>
<path fill-rule="nonzero" fill="rgb(60.784314%, 58.431373%, 42.352941%)" fill-opacity="0.858824" stroke-width="0.708661" stroke-linecap="round" stroke-linejoin="round" stroke="rgb(60.784314%, 58.431373%, 42.352941%)" stroke-opacity="0.858824" stroke-miterlimit="10" d="M 173.429688 203.070312 C 173.429688 206.957031 167.601562 206.957031 167.601562 203.070312 C 167.601562 199.183594 173.429688 199.183594 173.429688 203.070312 "/>
<path fill-rule="nonzero" fill="rgb(60.784314%, 58.431373%, 42.352941%)" fill-opacity="0.858824" stroke-width="0.708661" stroke-linecap="round" stroke-linejoin="round" stroke="rgb(60.784314%, 58.431373%, 42.352941%)" stroke-opacity="0.858824" stroke-miterlimit="10" d="M 198.644531 216.992188 C 198.644531 220.878906 192.816406 220.878906 192.816406 216.992188 C 192.816406 213.105469 198.644531 213.105469 198.644531 216.992188 "/>
<path fill-rule="nonzero" fill="rgb(60.784314%, 58.431373%, 42.352941%)" fill-opacity="0.858824" stroke-width="0.708661" stroke-linecap="round" stroke-linejoin="round" stroke="rgb(60.784314%, 58.431373%, 42.352941%)" stroke-opacity="0.858824" stroke-miterlimit="10" d="M 177.429688 197.265625 C 177.429688 201.152344 171.597656 201.152344 171.597656 197.265625 C 171.597656 193.378906 177.429688 193.378906 177.429688 197.265625 "/>
<path fill-rule="nonzero" fill="rgb(60.784314%, 58.431373%, 42.352941%)" fill-opacity="0.858824" stroke-width="0.708661" stroke-linecap="round" stroke-linejoin="round" stroke="rgb(60.784314%, 58.431373%, 42.352941%)" stroke-opacity="0.858824" stroke-miterlimit="10" d="M 169.5 194.878906 C 169.5 198.765625 163.667969 198.765625 163.667969 194.878906 C 163.667969 190.992188 169.5 190.992188 169.5 194.878906 "/>
<path fill-rule="nonzero" fill="rgb(60.784314%, 58.431373%, 42.352941%)" fill-opacity="0.858824" stroke-width="0.708661" stroke-linecap="round" stroke-linejoin="round" stroke="rgb(60.784314%, 58.431373%, 42.352941%)" stroke-opacity="0.858824" stroke-miterlimit="10" d="M 176.71875 206.441406 C 176.71875 210.328125 170.886719 210.328125 170.886719 206.441406 C 170.886719 202.554688 176.71875 202.554688 176.71875 206.441406 "/>
<path fill-rule="nonzero" fill="rgb(60.784314%, 58.431373%, 42.352941%)" fill-opacity="0.858824" stroke-width="0.708661" stroke-linecap="round" stroke-linejoin="round" stroke="rgb(60.784314%, 58.431373%, 42.352941%)" stroke-opacity="0.858824" stroke-miterlimit="10" d="M 163.40625 224.492188 C 163.40625 228.378906 157.578125 228.378906 157.578125 224.492188 C 157.578125 220.605469 163.40625 220.605469 163.40625 224.492188 "/>
<path fill-rule="nonzero" fill="rgb(60.784314%, 58.431373%, 42.352941%)" fill-opacity="0.858824" stroke-width="0.708661" stroke-linecap="round" stroke-linejoin="round" stroke="rgb(60.784314%, 58.431373%, 42.352941%)" stroke-opacity="0.858824" stroke-miterlimit="10" d="M 181.097656 198.035156 C 181.097656 201.921875 175.265625 201.921875 175.265625 198.035156 C 175.265625 194.148438 181.097656 194.148438 181.097656 198.035156 "/>
<path fill-rule="nonzero" fill="rgb(60.784314%, 58.431373%, 42.352941%)" fill-opacity="0.858824" stroke-width="0.708661" stroke-linecap="round" stroke-linejoin="round" stroke="rgb(60.784314%, 58.431373%, 42.352941%)" stroke-opacity="0.858824" stroke-miterlimit="10" d="M 169.8125 192.132812 C 169.8125 196.019531 163.984375 196.019531 163.984375 192.132812 C 163.984375 188.246094 169.8125 188.246094 169.8125 192.132812 "/>
<path fill-rule="nonzero" fill="rgb(60.784314%, 58.431373%, 42.352941%)" fill-opacity="0.858824" stroke-width="0.708661" stroke-linecap="round" stroke-linejoin="round" stroke="rgb(60.784314%, 58.431373%, 42.352941%)" stroke-opacity="0.858824" stroke-miterlimit="10" d="M 178.753906 204.636719 C 178.753906 208.523438 172.921875 208.523438 172.921875 204.636719 C 172.921875 200.75 178.753906 200.75 178.753906 204.636719 "/>
<path fill-rule="nonzero" fill="rgb(60.784314%, 58.431373%, 42.352941%)" fill-opacity="0.858824" stroke-width="0.708661" stroke-linecap="round" stroke-linejoin="round" stroke="rgb(60.784314%, 58.431373%, 42.352941%)" stroke-opacity="0.858824" stroke-miterlimit="10" d="M 171.777344 202.429688 C 171.777344 206.316406 165.945312 206.316406 165.945312 202.429688 C 165.945312 198.542969 171.777344 198.542969 171.777344 202.429688 "/>
<path fill-rule="nonzero" fill="rgb(60.784314%, 58.431373%, 42.352941%)" fill-opacity="0.858824" stroke-width="0.708661" stroke-linecap="round" stroke-linejoin="round" stroke="rgb(60.784314%, 58.431373%, 42.352941%)" stroke-opacity="0.858824" stroke-miterlimit="10" d="M 163.632812 157.308594 C 163.632812 161.195312 157.800781 161.195312 157.800781 157.308594 C 157.800781 153.421875 163.632812 153.421875 163.632812 157.308594 "/>
<path fill-rule="nonzero" fill="rgb(60.784314%, 58.431373%, 42.352941%)" fill-opacity="0.858824" stroke-width="0.708661" stroke-linecap="round" stroke-linejoin="round" stroke="rgb(60.784314%, 58.431373%, 42.352941%)" stroke-opacity="0.858824" stroke-miterlimit="10" d="M 156 178.691406 C 156 182.578125 150.167969 182.578125 150.167969 178.691406 C 150.167969 174.804688 156 174.804688 156 178.691406 "/>
<path fill-rule="nonzero" fill="rgb(60.784314%, 58.431373%, 42.352941%)" fill-opacity="0.858824" stroke-width="0.708661" stroke-linecap="round" stroke-linejoin="round" stroke="rgb(60.784314%, 58.431373%, 42.352941%)" stroke-opacity="0.858824" stroke-miterlimit="10" d="M 144.515625 207.515625 C 144.515625 211.402344 138.683594 211.402344 138.683594 207.515625 C 138.683594 203.628906 144.515625 203.628906 144.515625 207.515625 "/>
<path fill-rule="nonzero" fill="rgb(82.745098%, 68.235294%, 38.431373%)" fill-opacity="0.858824" stroke-width="0.708661" stroke-linecap="round" stroke-linejoin="round" stroke="rgb(82.745098%, 68.235294%, 38.431373%)" stroke-opacity="0.858824" stroke-miterlimit="10" d="M 203.140625 91.796875 C 203.140625 95.683594 197.308594 95.683594 197.308594 91.796875 C 197.308594 87.910156 203.140625 87.910156 203.140625 91.796875 "/>
<path fill-rule="nonzero" fill="rgb(82.745098%, 68.235294%, 38.431373%)" fill-opacity="0.858824" stroke-width="0.708661" stroke-linecap="round" stroke-linejoin="round" stroke="rgb(82.745098%, 68.235294%, 38.431373%)" stroke-opacity="0.858824" stroke-miterlimit="10" d="M 220.347656 87.710938 C 220.347656 91.597656 214.519531 91.597656 214.519531 87.710938 C 214.519531 83.824219 220.347656 83.824219 220.347656 87.710938 "/>
<path fill-rule="nonzero" fill="rgb(82.745098%, 68.235294%, 38.431373%)" fill-opacity="0.858824" stroke-width="0.708661" stroke-linecap="round" stroke-linejoin="round" stroke="rgb(82.745098%, 68.235294%, 38.431373%)" stroke-opacity="0.858824" stroke-miterlimit="10" d="M 200.371094 107.710938 C 200.371094 111.597656 194.542969 111.597656 194.542969 107.710938 C 194.542969 103.824219 200.371094 103.824219 200.371094 107.710938 "/>
<path fill-rule="nonzero" fill="rgb(82.745098%, 68.235294%, 38.431373%)" fill-opacity="0.858824" stroke-width="0.708661" stroke-linecap="round" stroke-linejoin="round" stroke="rgb(82.745098%, 68.235294%, 38.431373%)" stroke-opacity="0.858824" stroke-miterlimit="10" d="M 220.550781 74.40625 C 220.550781 78.292969 214.722656 78.292969 214.722656 74.40625 C 214.722656 70.519531 220.550781 70.519531 220.550781 74.40625 "/>
<path fill-rule="nonzero" fill="rgb(82.745098%, 68.235294%, 38.431373%)" fill-opacity="0.858824" stroke-width="0.708661" stroke-linecap="round" stroke-linejoin="round" stroke="rgb(82.745098%, 68.235294%, 38.431373%)" stroke-opacity="0.858824" stroke-miterlimit="10" d="M 213.1875 99.855469 C 213.1875 103.742188 207.355469 103.742188 207.355469 99.855469 C 207.355469 95.96875 213.1875 95.96875 213.1875 99.855469 "/>
<path fill-rule="nonzero" fill="rgb(82.745098%, 68.235294%, 38.431373%)" fill-opacity="0.858824" stroke-width="0.708661" stroke-linecap="round" stroke-linejoin="round" stroke="rgb(82.745098%, 68.235294%, 38.431373%)" stroke-opacity="0.858824" stroke-miterlimit="10" d="M 224.503906 98.34375 C 224.503906 102.230469 218.671875 102.230469 218.671875 98.34375 C 218.671875 94.457031 224.503906 94.457031 224.503906 98.34375 "/>
<path fill-rule="nonzero" fill="rgb(82.745098%, 68.235294%, 38.431373%)" fill-opacity="0.858824" stroke-width="0.708661" stroke-linecap="round" stroke-linejoin="round" stroke="rgb(82.745098%, 68.235294%, 38.431373%)" stroke-opacity="0.858824" stroke-miterlimit="10" d="M 218.726562 108.945312 C 218.726562 112.832031 212.898438 112.832031 212.898438 108.945312 C 212.898438 105.058594 218.726562 105.058594 218.726562 108.945312 "/>
<path fill-rule="nonzero" fill="rgb(82.745098%, 68.235294%, 38.431373%)" fill-opacity="0.858824" stroke-width="0.708661" stroke-linecap="round" stroke-linejoin="round" stroke="rgb(82.745098%, 68.235294%, 38.431373%)" stroke-opacity="0.858824" stroke-miterlimit="10" d="M 204.414062 90.839844 C 204.414062 94.726562 198.585938 94.726562 198.585938 90.839844 C 198.585938 86.953125 204.414062 86.953125 204.414062 90.839844 "/>
<path fill-rule="nonzero" fill="rgb(82.745098%, 68.235294%, 38.431373%)" fill-opacity="0.858824" stroke-width="0.708661" stroke-linecap="round" stroke-linejoin="round" stroke="rgb(82.745098%, 68.235294%, 38.431373%)" stroke-opacity="0.858824" stroke-miterlimit="10" d="M 221.785156 103.96875 C 221.785156 107.855469 215.957031 107.855469 215.957031 103.96875 C 215.957031 100.082031 221.785156 100.082031 221.785156 103.96875 "/>
<path fill-rule="nonzero" fill="rgb(82.745098%, 68.235294%, 38.431373%)" fill-opacity="0.858824" stroke-width="0.708661" stroke-linecap="round" stroke-linejoin="round" stroke="rgb(82.745098%, 68.235294%, 38.431373%)" stroke-opacity="0.858824" stroke-miterlimit="10" d="M 214.460938 82.957031 C 214.460938 86.84375 208.628906 86.84375 208.628906 82.957031 C 208.628906 79.070312 214.460938 79.070312 214.460938 82.957031 "/>
<path fill-rule="nonzero" fill="rgb(82.745098%, 68.235294%, 38.431373%)" fill-opacity="0.858824" stroke-width="0.708661" stroke-linecap="round" stroke-linejoin="round" stroke="rgb(82.745098%, 68.235294%, 38.431373%)" stroke-opacity="0.858824" stroke-miterlimit="10" d="M 216.488281 76.40625 C 216.488281 80.292969 210.65625 80.292969 210.65625 76.40625 C 210.65625 72.519531 216.488281 72.519531 216.488281 76.40625 "/>
<path fill-rule="nonzero" fill="rgb(82.745098%, 68.235294%, 38.431373%)" fill-opacity="0.858824" stroke-width="0.708661" stroke-linecap="round" stroke-linejoin="round" stroke="rgb(82.745098%, 68.235294%, 38.431373%)" stroke-opacity="0.858824" stroke-miterlimit="10" d="M 255.71875 98.40625 C 255.71875 102.292969 249.890625 102.292969 249.890625 98.40625 C 249.890625 94.519531 255.71875 94.519531 255.71875 98.40625 "/>
<path fill-rule="nonzero" fill="rgb(82.745098%, 68.235294%, 38.431373%)" fill-opacity="0.858824" stroke-width="0.708661" stroke-linecap="round" stroke-linejoin="round" stroke="rgb(82.745098%, 68.235294%, 38.431373%)" stroke-opacity="0.858824" stroke-miterlimit="10" d="M 225.113281 100.503906 C 225.113281 104.390625 219.28125 104.390625 219.28125 100.503906 C 219.28125 96.617188 225.113281 96.617188 225.113281 100.503906 "/>
<path fill-rule="nonzero" fill="rgb(82.745098%, 68.235294%, 38.431373%)" fill-opacity="0.858824" stroke-width="0.708661" stroke-linecap="round" stroke-linejoin="round" stroke="rgb(82.745098%, 68.235294%, 38.431373%)" stroke-opacity="0.858824" stroke-miterlimit="10" d="M 227.671875 68.414062 C 227.671875 72.300781 221.84375 72.300781 221.84375 68.414062 C 221.84375 64.527344 227.671875 64.527344 227.671875 68.414062 "/>
<path fill-rule="nonzero" fill="rgb(89.411765%, 80.392157%, 65.098039%)" fill-opacity="0.858824" stroke-width="0.708661" stroke-linecap="round" stroke-linejoin="round" stroke="rgb(89.411765%, 80.392157%, 65.098039%)" stroke-opacity="0.858824" stroke-miterlimit="10" d="M 272.886719 167.25 C 272.886719 171.136719 267.058594 171.136719 267.058594 167.25 C 267.058594 163.363281 272.886719 163.363281 272.886719 167.25 "/>
<path fill-rule="nonzero" fill="rgb(89.411765%, 80.392157%, 65.098039%)" fill-opacity="0.858824" stroke-width="0.708661" stroke-linecap="round" stroke-linejoin="round" stroke="rgb(89.411765%, 80.392157%, 65.098039%)" stroke-opacity="0.858824" stroke-miterlimit="10" d="M 250.519531 174.335938 C 250.519531 178.222656 244.6875 178.222656 244.6875 174.335938 C 244.6875 170.449219 250.519531 170.449219 250.519531 174.335938 "/>
<path fill-rule="nonzero" fill="rgb(89.411765%, 80.392157%, 65.098039%)" fill-opacity="0.858824" stroke-width="0.708661" stroke-linecap="round" stroke-linejoin="round" stroke="rgb(89.411765%, 80.392157%, 65.098039%)" stroke-opacity="0.858824" stroke-miterlimit="10" d="M 245.894531 152.230469 C 245.894531 156.117188 240.066406 156.117188 240.066406 152.230469 C 240.066406 148.34375 245.894531 148.34375 245.894531 152.230469 "/>
<path fill-rule="nonzero" fill="rgb(89.411765%, 80.392157%, 65.098039%)" fill-opacity="0.858824" stroke-width="0.708661" stroke-linecap="round" stroke-linejoin="round" stroke="rgb(89.411765%, 80.392157%, 65.098039%)" stroke-opacity="0.858824" stroke-miterlimit="10" d="M 260.027344 161.414062 C 260.027344 165.300781 254.199219 165.300781 254.199219 161.414062 C 254.199219 157.527344 260.027344 157.527344 260.027344 161.414062 "/>
<path fill-rule="nonzero" fill="rgb(89.411765%, 80.392157%, 65.098039%)" fill-opacity="0.858824" stroke-width="0.708661" stroke-linecap="round" stroke-linejoin="round" stroke="rgb(89.411765%, 80.392157%, 65.098039%)" stroke-opacity="0.858824" stroke-miterlimit="10" d="M 248.265625 152.105469 C 248.265625 155.992188 242.4375 155.992188 242.4375 152.105469 C 242.4375 148.21875 248.265625 148.21875 248.265625 152.105469 "/>
<path fill-rule="nonzero" fill="rgb(89.411765%, 80.392157%, 65.098039%)" fill-opacity="0.858824" stroke-width="0.708661" stroke-linecap="round" stroke-linejoin="round" stroke="rgb(89.411765%, 80.392157%, 65.098039%)" stroke-opacity="0.858824" stroke-miterlimit="10" d="M 283.355469 165.90625 C 283.355469 169.792969 277.523438 169.792969 277.523438 165.90625 C 277.523438 162.019531 283.355469 162.019531 283.355469 165.90625 "/>
<path fill-rule="nonzero" fill="rgb(89.411765%, 80.392157%, 65.098039%)" fill-opacity="0.858824" stroke-width="0.708661" stroke-linecap="round" stroke-linejoin="round" stroke="rgb(89.411765%, 80.392157%, 65.098039%)" stroke-opacity="0.858824" stroke-miterlimit="10" d="M 265.761719 174.28125 C 265.761719 178.167969 259.933594 178.167969 259.933594 174.28125 C 259.933594 170.394531 265.761719 170.394531 265.761719 174.28125 "/>
<path fill-rule="nonzero" fill="rgb(89.411765%, 80.392157%, 65.098039%)" fill-opacity="0.858824" stroke-width="0.708661" stroke-linecap="round" stroke-linejoin="round" stroke="rgb(89.411765%, 80.392157%, 65.098039%)" stroke-opacity="0.858824" stroke-miterlimit="10" d="M 269.671875 160.179688 C 269.671875 164.066406 263.839844 164.066406 263.839844 160.179688 C 263.839844 156.292969 269.671875 156.292969 269.671875 160.179688 "/>
<path fill-rule="nonzero" fill="rgb(89.411765%, 80.392157%, 65.098039%)" fill-opacity="0.858824" stroke-width="0.708661" stroke-linecap="round" stroke-linejoin="round" stroke="rgb(89.411765%, 80.392157%, 65.098039%)" stroke-opacity="0.858824" stroke-miterlimit="10" d="M 239.429688 195.097656 C 239.429688 198.984375 233.597656 198.984375 233.597656 195.097656 C 233.597656 191.210938 239.429688 191.210938 239.429688 195.097656 "/>
<path fill-rule="nonzero" fill="rgb(89.411765%, 80.392157%, 65.098039%)" fill-opacity="0.858824" stroke-width="0.708661" stroke-linecap="round" stroke-linejoin="round" stroke="rgb(89.411765%, 80.392157%, 65.098039%)" stroke-opacity="0.858824" stroke-miterlimit="10" d="M 289.390625 172.183594 C 289.390625 176.070312 283.5625 176.070312 283.5625 172.183594 C 283.5625 168.296875 289.390625 168.296875 289.390625 172.183594 "/>
<path fill-rule="nonzero" fill="rgb(89.411765%, 80.392157%, 65.098039%)" fill-opacity="0.858824" stroke-width="0.708661" stroke-linecap="round" stroke-linejoin="round" stroke="rgb(89.411765%, 80.392157%, 65.098039%)" stroke-opacity="0.858824" stroke-miterlimit="10" d="M 259.226562 156.574219 C 259.226562 160.460938 253.394531 160.460938 253.394531 156.574219 C 253.394531 152.6875 259.226562 152.6875 259.226562 156.574219 "/>
<path fill-rule="nonzero" fill="rgb(89.411765%, 80.392157%, 65.098039%)" fill-opacity="0.858824" stroke-width="0.708661" stroke-linecap="round" stroke-linejoin="round" stroke="rgb(89.411765%, 80.392157%, 65.098039%)" stroke-opacity="0.858824" stroke-miterlimit="10" d="M 264.269531 176.945312 C 264.269531 180.832031 258.441406 180.832031 258.441406 176.945312 C 258.441406 173.058594 264.269531 173.058594 264.269531 176.945312 "/>
<path fill-rule="nonzero" fill="rgb(89.411765%, 80.392157%, 65.098039%)" fill-opacity="0.858824" stroke-width="0.708661" stroke-linecap="round" stroke-linejoin="round" stroke="rgb(89.411765%, 80.392157%, 65.098039%)" stroke-opacity="0.858824" stroke-miterlimit="10" d="M 255.160156 153.199219 C 255.160156 157.085938 249.332031 157.085938 249.332031 153.199219 C 249.332031 149.3125 255.160156 149.3125 255.160156 153.199219 "/>
<path fill-rule="nonzero" fill="rgb(89.411765%, 80.392157%, 65.098039%)" fill-opacity="0.858824" stroke-width="0.708661" stroke-linecap="round" stroke-linejoin="round" stroke="rgb(89.411765%, 80.392157%, 65.098039%)" stroke-opacity="0.858824" stroke-miterlimit="10" d="M 244.671875 172.609375 C 244.671875 176.496094 238.84375 176.496094 238.84375 172.609375 C 238.84375 168.722656 244.671875 168.722656 244.671875 172.609375 "/>
<path fill-rule="nonzero" fill="rgb(77.647059%, 43.529412%, 32.941176%)" fill-opacity="0.858824" stroke-width="0.708661" stroke-linecap="round" stroke-linejoin="round" stroke="rgb(77.647059%, 43.529412%, 32.941176%)" stroke-opacity="0.858824" stroke-miterlimit="10" d="M 300.113281 70.15625 C 300.113281 74.042969 294.28125 74.042969 294.28125 70.15625 C 294.28125 66.269531 300.113281 66.269531 300.113281 70.15625 "/>
<path fill-rule="nonzero" fill="rgb(77.647059%, 43.529412%, 32.941176%)" fill-opacity="0.858824" stroke-width="0.708661" stroke-linecap="round" stroke-linejoin="round" stroke="rgb(77.647059%, 43.529412%, 32.941176%)" stroke-opacity="0.858824" stroke-miterlimit="10" d="M 285.363281 74.640625 C 285.363281 78.527344 279.53125 78.527344 279.53125 74.640625 C 279.53125 70.753906 285.363281 70.753906 285.363281 74.640625 "/>
<path fill-rule="nonzero" fill="rgb(77.647059%, 43.529412%, 32.941176%)" fill-opacity="0.858824" stroke-width="0.708661" stroke-linecap="round" stroke-linejoin="round" stroke="rgb(77.647059%, 43.529412%, 32.941176%)" stroke-opacity="0.858824" stroke-miterlimit="10" d="M 309.4375 67.746094 C 309.4375 71.632812 303.609375 71.632812 303.609375 67.746094 C 303.609375 63.859375 309.4375 63.859375 309.4375 67.746094 "/>
<path fill-rule="nonzero" fill="rgb(77.647059%, 43.529412%, 32.941176%)" fill-opacity="0.858824" stroke-width="0.708661" stroke-linecap="round" stroke-linejoin="round" stroke="rgb(77.647059%, 43.529412%, 32.941176%)" stroke-opacity="0.858824" stroke-miterlimit="10" d="M 307.144531 39.421875 C 307.144531 43.308594 301.3125 43.308594 301.3125 39.421875 C 301.3125 35.535156 307.144531 35.535156 307.144531 39.421875 "/>
<path fill-rule="nonzero" fill="rgb(77.647059%, 43.529412%, 32.941176%)" fill-opacity="0.858824" stroke-width="0.708661" stroke-linecap="round" stroke-linejoin="round" stroke="rgb(77.647059%, 43.529412%, 32.941176%)" stroke-opacity="0.858824" stroke-miterlimit="10" d="M 294.703125 79.601562 C 294.703125 83.488281 288.871094 83.488281 288.871094 79.601562 C 288.871094 75.714844 294.703125 75.714844 294.703125 79.601562 "/>
<path fill-rule="nonzero" fill="rgb(77.647059%, 43.529412%, 32.941176%)" fill-opacity="0.858824" stroke-width="0.708661" stroke-linecap="round" stroke-linejoin="round" stroke="rgb(77.647059%, 43.529412%, 32.941176%)" stroke-opacity="0.858824" stroke-miterlimit="10" d="M 290.507812 57.136719 C 290.507812 61.023438 284.675781 61.023438 284.675781 57.136719 C 284.675781 53.25 290.507812 53.25 290.507812 57.136719 "/>
<path fill-rule="nonzero" fill="rgb(77.647059%, 43.529412%, 32.941176%)" fill-opacity="0.858824" stroke-width="0.708661" stroke-linecap="round" stroke-linejoin="round" stroke="rgb(77.647059%, 43.529412%, 32.941176%)" stroke-opacity="0.858824" stroke-miterlimit="10" d="M 291.191406 65.796875 C 291.191406 69.683594 285.359375 69.683594 285.359375 65.796875 C 285.359375 61.910156 291.191406 61.910156 291.191406 65.796875 "/>
<path fill-rule="nonzero" fill="rgb(77.647059%, 43.529412%, 32.941176%)" fill-opacity="0.858824" stroke-width="0.708661" stroke-linecap="round" stroke-linejoin="round" stroke="rgb(77.647059%, 43.529412%, 32.941176%)" stroke-opacity="0.858824" stroke-miterlimit="10" d="M 318.585938 78.09375 C 318.585938 81.980469 312.753906 81.980469 312.753906 78.09375 C 312.753906 74.207031 318.585938 74.207031 318.585938 78.09375 "/>
<path fill-rule="nonzero" fill="rgb(77.647059%, 43.529412%, 32.941176%)" fill-opacity="0.858824" stroke-width="0.708661" stroke-linecap="round" stroke-linejoin="round" stroke="rgb(77.647059%, 43.529412%, 32.941176%)" stroke-opacity="0.858824" stroke-miterlimit="10" d="M 297.53125 55.003906 C 297.53125 58.890625 291.699219 58.890625 291.699219 55.003906 C 291.699219 51.117188 297.53125 51.117188 297.53125 55.003906 "/>
<path fill-rule="nonzero" fill="rgb(77.647059%, 43.529412%, 32.941176%)" fill-opacity="0.858824" stroke-width="0.708661" stroke-linecap="round" stroke-linejoin="round" stroke="rgb(77.647059%, 43.529412%, 32.941176%)" stroke-opacity="0.858824" stroke-miterlimit="10" d="M 287.96875 53.332031 C 287.96875 57.21875 282.136719 57.21875 282.136719 53.332031 C 282.136719 49.441406 287.96875 49.441406 287.96875 53.332031 "/>
<path fill-rule="nonzero" fill="rgb(77.647059%, 43.529412%, 32.941176%)" fill-opacity="0.858824" stroke-width="0.708661" stroke-linecap="round" stroke-linejoin="round" stroke="rgb(77.647059%, 43.529412%, 32.941176%)" stroke-opacity="0.858824" stroke-miterlimit="10" d="M 299.460938 49.613281 C 299.460938 53.5 293.628906 53.5 293.628906 49.613281 C 293.628906 45.726562 299.460938 45.726562 299.460938 49.613281 "/>
<path fill-rule="nonzero" fill="rgb(77.647059%, 43.529412%, 32.941176%)" fill-opacity="0.858824" stroke-width="0.708661" stroke-linecap="round" stroke-linejoin="round" stroke="rgb(77.647059%, 43.529412%, 32.941176%)" stroke-opacity="0.858824" stroke-miterlimit="10" d="M 304.742188 40.527344 C 304.742188 44.414062 298.910156 44.414062 298.910156 40.527344 C 298.910156 36.640625 304.742188 36.640625 304.742188 40.527344 "/>
<path fill-rule="nonzero" fill="rgb(77.647059%, 43.529412%, 32.941176%)" fill-opacity="0.858824" stroke-width="0.708661" stroke-linecap="round" stroke-linejoin="round" stroke="rgb(77.647059%, 43.529412%, 32.941176%)" stroke-opacity="0.858824" stroke-miterlimit="10" d="M 307.992188 61.648438 C 307.992188 65.535156 302.160156 65.535156 302.160156 61.648438 C 302.160156 57.761719 307.992188 57.761719 307.992188 61.648438 "/>
<path fill-rule="nonzero" fill="rgb(77.647059%, 43.529412%, 32.941176%)" fill-opacity="0.858824" stroke-width="0.708661" stroke-linecap="round" stroke-linejoin="round" stroke="rgb(77.647059%, 43.529412%, 32.941176%)" stroke-opacity="0.858824" stroke-miterlimit="10" d="M 288.738281 51.5 C 288.738281 55.386719 282.90625 55.386719 282.90625 51.5 C 282.90625 47.613281 288.738281 47.613281 288.738281 51.5 "/>
<path fill-rule="nonzero" fill="rgb(57.647059%, 28.235294%, 35.294118%)" fill-opacity="0.858824" stroke-width="0.708661" stroke-linecap="round" stroke-linejoin="round" stroke="rgb(57.647059%, 28.235294%, 35.294118%)" stroke-opacity="0.858824" stroke-miterlimit="10" d="M 337.746094 214.898438 C 337.746094 218.785156 331.914062 218.785156 331.914062 214.898438 C 331.914062 211.011719 337.746094 211.011719 337.746094 214.898438 "/>
<path fill-rule="nonzero" fill="rgb(57.647059%, 28.235294%, 35.294118%)" fill-opacity="0.858824" stroke-width="0.708661" stroke-linecap="round" stroke-linejoin="round" stroke="rgb(57.647059%, 28.235294%, 35.294118%)" stroke-opacity="0.858824" stroke-miterlimit="10" d="M 328.425781 202.125 C 328.425781 206.011719 322.59375 206.011719 322.59375 202.125 C 322.59375 198.238281 328.425781 198.238281 328.425781 202.125 "/>
<path fill-rule="nonzero" fill="rgb(57.647059%, 28.235294%, 35.294118%)" fill-opacity="0.858824" stroke-width="0.708661" stroke-linecap="round" stroke-linejoin="round" stroke="rgb(57.647059%, 28.235294%, 35.294118%)" stroke-opacity="0.858824" stroke-miterlimit="10" d="M 347.175781 187.929688 C 347.175781 191.816406 341.34375 191.816406 341.34375 187.929688 C 341.34375 184.042969 347.175781 184.042969 347.175781 187.929688 "/>
<path fill-rule="nonzero" fill="rgb(57.647059%, 28.235294%, 35.294118%)" fill-opacity="0.858824" stroke-width="0.708661" stroke-linecap="round" stroke-linejoin="round" stroke="rgb(57.647059%, 28.235294%, 35.294118%)" stroke-opacity="0.858824" stroke-miterlimit="10" d="M 354.46875 184.910156 C 354.46875 188.796875 348.640625 188.796875 348.640625 184.910156 C 348.640625 181.023438 354.46875 181.023438 354.46875 184.910156 "/>
<path fill-rule="nonzero" fill="rgb(57.647059%, 28.235294%, 35.294118%)" fill-opacity="0.858824" stroke-width="0.708661" stroke-linecap="round" stroke-linejoin="round" stroke="rgb(57.647059%, 28.235294%, 35.294118%)" stroke-opacity="0.858824" stroke-miterlimit="10" d="M 339.566406 207.363281 C 339.566406 211.25 333.738281 211.25 333.738281 207.363281 C 333.738281 203.476562 339.566406 203.476562 339.566406 207.363281 "/>
<path fill-rule="nonzero" fill="rgb(57.647059%, 28.235294%, 35.294118%)" fill-opacity="0.858824" stroke-width="0.708661" stroke-linecap="round" stroke-linejoin="round" stroke="rgb(57.647059%, 28.235294%, 35.294118%)" stroke-opacity="0.858824" stroke-miterlimit="10" d="M 323.054688 211.261719 C 323.054688 215.148438 317.222656 215.148438 317.222656 211.261719 C 317.222656 207.371094 323.054688 207.371094 323.054688 211.261719 "/>
<path fill-rule="nonzero" fill="rgb(57.647059%, 28.235294%, 35.294118%)" fill-opacity="0.858824" stroke-width="0.708661" stroke-linecap="round" stroke-linejoin="round" stroke="rgb(57.647059%, 28.235294%, 35.294118%)" stroke-opacity="0.858824" stroke-miterlimit="10" d="M 328.25 199.984375 C 328.25 203.871094 322.421875 203.871094 322.421875 199.984375 C 322.421875 196.097656 328.25 196.097656 328.25 199.984375 "/>
<path fill-rule="nonzero" fill="rgb(57.647059%, 28.235294%, 35.294118%)" fill-opacity="0.858824" stroke-width="0.708661" stroke-linecap="round" stroke-linejoin="round" stroke="rgb(57.647059%, 28.235294%, 35.294118%)" stroke-opacity="0.858824" stroke-miterlimit="10" d="M 344.195312 202.515625 C 344.195312 206.402344 338.367188 206.402344 338.367188 202.515625 C 338.367188 198.628906 344.195312 198.628906 344.195312 202.515625 "/>
<path fill-rule="nonzero" fill="rgb(57.647059%, 28.235294%, 35.294118%)" fill-opacity="0.858824" stroke-width="0.708661" stroke-linecap="round" stroke-linejoin="round" stroke="rgb(57.647059%, 28.235294%, 35.294118%)" stroke-opacity="0.858824" stroke-miterlimit="10" d="M 344.167969 169.335938 C 344.167969 173.222656 338.335938 173.222656 338.335938 169.335938 C 338.335938 165.449219 344.167969 165.449219 344.167969 169.335938 "/>
<path fill-rule="nonzero" fill="rgb(57.647059%, 28.235294%, 35.294118%)" fill-opacity="0.858824" stroke-width="0.708661" stroke-linecap="round" stroke-linejoin="round" stroke="rgb(57.647059%, 28.235294%, 35.294118%)" stroke-opacity="0.858824" stroke-miterlimit="10" d="M 319.394531 198.195312 C 319.394531 202.082031 313.5625 202.082031 313.5625 198.195312 C 313.5625 194.308594 319.394531 194.308594 319.394531 198.195312 "/>
<path fill-rule="nonzero" fill="rgb(57.647059%, 28.235294%, 35.294118%)" fill-opacity="0.858824" stroke-width="0.708661" stroke-linecap="round" stroke-linejoin="round" stroke="rgb(57.647059%, 28.235294%, 35.294118%)" stroke-opacity="0.858824" stroke-miterlimit="10" d="M 324.453125 219.5625 C 324.453125 223.449219 318.625 223.449219 318.625 219.5625 C 318.625 215.675781 324.453125 215.675781 324.453125 219.5625 "/>
<path fill-rule="nonzero" fill="rgb(57.647059%, 28.235294%, 35.294118%)" fill-opacity="0.858824" stroke-width="0.708661" stroke-linecap="round" stroke-linejoin="round" stroke="rgb(57.647059%, 28.235294%, 35.294118%)" stroke-opacity="0.858824" stroke-miterlimit="10" d="M 319 201.9375 C 319 205.824219 313.167969 205.824219 313.167969 201.9375 C 313.167969 198.050781 319 198.050781 319 201.9375 "/>
<path fill-rule="nonzero" fill="rgb(57.647059%, 28.235294%, 35.294118%)" fill-opacity="0.858824" stroke-width="0.708661" stroke-linecap="round" stroke-linejoin="round" stroke="rgb(57.647059%, 28.235294%, 35.294118%)" stroke-opacity="0.858824" stroke-miterlimit="10" d="M 337.128906 198.644531 C 337.128906 202.53125 331.296875 202.53125 331.296875 198.644531 C 331.296875 194.757812 337.128906 194.757812 337.128906 198.644531 "/>
<path fill-rule="nonzero" fill="rgb(57.647059%, 28.235294%, 35.294118%)" fill-opacity="0.858824" stroke-width="0.708661" stroke-linecap="round" stroke-linejoin="round" stroke="rgb(57.647059%, 28.235294%, 35.294118%)" stroke-opacity="0.858824" stroke-miterlimit="10" d="M 322.285156 183.394531 C 322.285156 187.28125 316.453125 187.28125 316.453125 183.394531 C 316.453125 179.507812 322.285156 179.507812 322.285156 183.394531 "/>
<path fill-rule="nonzero" fill="rgb(32.156863%, 41.568627%, 50.980392%)" fill-opacity="0.858824" stroke-width="0.708661" stroke-linecap="round" stroke-linejoin="round" stroke="rgb(32.156863%, 41.568627%, 50.980392%)" stroke-opacity="0.858824" stroke-miterlimit="10" d="M 382.335938 124.296875 C 382.335938 128.183594 376.503906 128.183594 376.503906 124.296875 C 376.503906 120.410156 382.335938 120.410156 382.335938 124.296875 "/>
<path fill-rule="nonzero" fill="rgb(32.156863%, 41.568627%, 50.980392%)" fill-opacity="0.858824" stroke-width="0.708661" stroke-linecap="round" stroke-linejoin="round" stroke="rgb(32.156863%, 41.568627%, 50.980392%)" stroke-opacity="0.858824" stroke-miterlimit="10" d="M 388.683594 123.929688 C 388.683594 127.816406 382.851562 127.816406 382.851562 123.929688 C 382.851562 120.042969 388.683594 120.042969 388.683594 123.929688 "/>
<path fill-rule="nonzero" fill="rgb(32.156863%, 41.568627%, 50.980392%)" fill-opacity="0.858824" stroke-width="0.708661" stroke-linecap="round" stroke-linejoin="round" stroke="rgb(32.156863%, 41.568627%, 50.980392%)" stroke-opacity="0.858824" stroke-miterlimit="10" d="M 368.753906 112.21875 C 368.753906 116.105469 362.925781 116.105469 362.925781 112.21875 C 362.925781 108.332031 368.753906 108.332031 368.753906 112.21875 "/>
<path fill-rule="nonzero" fill="rgb(32.156863%, 41.568627%, 50.980392%)" fill-opacity="0.858824" stroke-width="0.708661" stroke-linecap="round" stroke-linejoin="round" stroke="rgb(32.156863%, 41.568627%, 50.980392%)" stroke-opacity="0.858824" stroke-miterlimit="10" d="M 371.15625 123.050781 C 371.15625 126.9375 365.324219 126.9375 365.324219 123.050781 C 365.324219 119.164062 371.15625 119.164062 371.15625 123.050781 "/>
<path fill-rule="nonzero" fill="rgb(32.156863%, 41.568627%, 50.980392%)" fill-opacity="0.858824" stroke-width="0.708661" stroke-linecap="round" stroke-linejoin="round" stroke="rgb(32.156863%, 41.568627%, 50.980392%)" stroke-opacity="0.858824" stroke-miterlimit="10" d="M 390.679688 122.785156 C 390.679688 126.671875 384.851562 126.671875 384.851562 122.785156 C 384.851562 118.898438 390.679688 118.898438 390.679688 122.785156 "/>
<path fill-rule="nonzero" fill="rgb(32.156863%, 41.568627%, 50.980392%)" fill-opacity="0.858824" stroke-width="0.708661" stroke-linecap="round" stroke-linejoin="round" stroke="rgb(32.156863%, 41.568627%, 50.980392%)" stroke-opacity="0.858824" stroke-miterlimit="10" d="M 343.726562 112.054688 C 343.726562 115.941406 337.894531 115.941406 337.894531 112.054688 C 337.894531 108.167969 343.726562 108.167969 343.726562 112.054688 "/>
<path fill-rule="nonzero" fill="rgb(32.156863%, 41.568627%, 50.980392%)" fill-opacity="0.858824" stroke-width="0.708661" stroke-linecap="round" stroke-linejoin="round" stroke="rgb(32.156863%, 41.568627%, 50.980392%)" stroke-opacity="0.858824" stroke-miterlimit="10" d="M 365.695312 113.015625 C 365.695312 116.902344 359.863281 116.902344 359.863281 113.015625 C 359.863281 109.128906 365.695312 109.128906 365.695312 113.015625 "/>
<path fill-rule="nonzero" fill="rgb(32.156863%, 41.568627%, 50.980392%)" fill-opacity="0.858824" stroke-width="0.708661" stroke-linecap="round" stroke-linejoin="round" stroke="rgb(32.156863%, 41.568627%, 50.980392%)" stroke-opacity="0.858824" stroke-miterlimit="10" d="M 382.953125 98.761719 C 382.953125 102.648438 377.121094 102.648438 377.121094 98.761719 C 377.121094 94.875 382.953125 94.875 382.953125 98.761719 "/>
<path fill-rule="nonzero" fill="rgb(32.156863%, 41.568627%, 50.980392%)" fill-opacity="0.858824" stroke-width="0.708661" stroke-linecap="round" stroke-linejoin="round" stroke="rgb(32.156863%, 41.568627%, 50.980392%)" stroke-opacity="0.858824" stroke-miterlimit="10" d="M 385.519531 125.042969 C 385.519531 128.929688 379.691406 128.929688 379.691406 125.042969 C 379.691406 121.15625 385.519531 121.15625 385.519531 125.042969 "/>
<path fill-rule="nonzero" fill="rgb(32.156863%, 41.568627%, 50.980392%)" fill-opacity="0.858824" stroke-width="0.708661" stroke-linecap="round" stroke-linejoin="round" stroke="rgb(32.156863%, 41.568627%, 50.980392%)" stroke-opacity="0.858824" stroke-miterlimit="10" d="M 376.457031 126.351562 C 376.457031 130.238281 370.628906 130.238281 370.628906 126.351562 C 370.628906 122.464844 376.457031 122.464844 376.457031 126.351562 "/>
<path fill-rule="nonzero" fill="rgb(32.156863%, 41.568627%, 50.980392%)" fill-opacity="0.858824" stroke-width="0.708661" stroke-linecap="round" stroke-linejoin="round" stroke="rgb(32.156863%, 41.568627%, 50.980392%)" stroke-opacity="0.858824" stroke-miterlimit="10" d="M 368.40625 101.429688 C 368.40625 105.316406 362.578125 105.316406 362.578125 101.429688 C 362.578125 97.542969 368.40625 97.542969 368.40625 101.429688 "/>
<path fill-rule="nonzero" fill="rgb(32.156863%, 41.568627%, 50.980392%)" fill-opacity="0.858824" stroke-width="0.708661" stroke-linecap="round" stroke-linejoin="round" stroke="rgb(32.156863%, 41.568627%, 50.980392%)" stroke-opacity="0.858824" stroke-miterlimit="10" d="M 368.859375 113.089844 C 368.859375 116.976562 363.027344 116.976562 363.027344 113.089844 C 363.027344 109.203125 368.859375 109.203125 368.859375 113.089844 "/>
<path fill-rule="nonzero" fill="rgb(32.156863%, 41.568627%, 50.980392%)" fill-opacity="0.858824" stroke-width="0.708661" stroke-linecap="round" stroke-linejoin="round" stroke="rgb(32.156863%, 41.568627%, 50.980392%)" stroke-opacity="0.858824" stroke-miterlimit="10" d="M 375.304688 136.648438 C 375.304688 140.535156 369.476562 140.535156 369.476562 136.648438 C 369.476562 132.761719 375.304688 132.761719 375.304688 136.648438 "/>
<path fill-rule="nonzero" fill="rgb(32.156863%, 41.568627%, 50.980392%)" fill-opacity="0.858824" stroke-width="0.708661" stroke-linecap="round" stroke-linejoin="round" stroke="rgb(32.156863%, 41.568627%, 50.980392%)" stroke-opacity="0.858824" stroke-miterlimit="10" d="M 377.320312 107.902344 C 377.320312 111.789062 371.488281 111.789062 371.488281 107.902344 C 371.488281 104.015625 377.320312 104.015625 377.320312 107.902344 "/>
<g fill="rgb(45.490196%, 41.960784%, 37.254902%)" fill-opacity="1">
<use xlink:href="#glyph-0-0" x="11.953125" y="222.835938"/>
<use xlink:href="#glyph-0-1" x="14.950195" y="222.835938"/>
</g>
<g fill="rgb(45.490196%, 41.960784%, 37.254902%)" fill-opacity="1">
<use xlink:href="#glyph-0-2" x="14.953125" y="154.785156"/>
</g>
<g fill="rgb(45.490196%, 41.960784%, 37.254902%)" fill-opacity="1">
<use xlink:href="#glyph-0-1" x="14.953125" y="86.734375"/>
</g>
<g fill="rgb(45.490196%, 41.960784%, 37.254902%)" fill-opacity="1">
<use xlink:href="#glyph-0-0" x="49.574219" y="246.144531"/>
<use xlink:href="#glyph-0-3" x="52.571289" y="246.144531"/>
</g>
<g fill="rgb(45.490196%, 41.960784%, 37.254902%)" fill-opacity="1">
<use xlink:href="#glyph-0-0" x="119.570312" y="246.144531"/>
<use xlink:href="#glyph-0-1" x="122.567383" y="246.144531"/>
</g>
<g fill="rgb(45.490196%, 41.960784%, 37.254902%)" fill-opacity="1">
<use xlink:href="#glyph-0-2" x="191.0625" y="246.144531"/>
</g>
<g fill="rgb(45.490196%, 41.960784%, 37.254902%)" fill-opacity="1">
<use xlink:href="#glyph-0-1" x="261.0625" y="246.144531"/>
</g>
<g fill="rgb(45.490196%, 41.960784%, 37.254902%)" fill-opacity="1">
<use xlink:href="#glyph-0-3" x="331.058594" y="246.144531"/>
</g>
<g fill="rgb(45.490196%, 41.960784%, 37.254902%)" fill-opacity="1">
<use xlink:href="#glyph-0-4" x="401.054688" y="246.144531"/>
</g>
<g fill="rgb(20%, 18.431373%, 16.470588%)" fill-opacity="1">
<use xlink:href="#glyph-1-0" x="24.890625" y="20.410156"/>
<use xlink:href="#glyph-1-1" x="34.423242" y="20.410156"/>
<use xlink:href="#glyph-1-2" x="37.355859" y="20.410156"/>
<use xlink:href="#glyph-1-3" x="44.69707" y="20.410156"/>
<use xlink:href="#glyph-1-4" x="51.29707" y="20.410156"/>
<use xlink:href="#glyph-1-5" x="54.964453" y="20.410156"/>
<use xlink:href="#glyph-1-6" x="62.305664" y="20.410156"/>
<use xlink:href="#glyph-1-5" x="66.701367" y="20.410156"/>
<use xlink:href="#glyph-1-7" x="74.042578" y="20.410156"/>
<use xlink:href="#glyph-1-8" x="81.383789" y="20.410156"/>
<use xlink:href="#glyph-1-3" x="85.051172" y="20.410156"/>
<use xlink:href="#glyph-1-9" x="91.651172" y="20.410156"/>
<use xlink:href="#glyph-1-10" x="98.251172" y="20.410156"/>
<use xlink:href="#glyph-1-4" x="105.592383" y="20.410156"/>
<use xlink:href="#glyph-1-4" x="109.259766" y="20.410156"/>
<use xlink:href="#glyph-1-5" x="112.927148" y="20.410156"/>
<use xlink:href="#glyph-1-6" x="120.268359" y="20.410156"/>
</g>
</svg>
